<?xml version="1.0" encoding="UTF-8"?>
<svg version="1.1" xmlns="http://www.w3.org/2000/svg" width="1280" height="557">
<path d="M0 0 C153.12 0 306.24 0 464 0 C464 111.87 464 223.74 464 339 C310.88 339 157.76 339 0 339 C0 227.13 0 115.26 0 0 Z " fill="#E91E19" transform="translate(15,109)"/>
<path d="M0 0 C12.87 0 25.74 0 39 0 C43.9511462 12.85560768 48.72236476 25.73726277 53.22265625 38.75634766 C55.95710025 46.64879124 58.75632566 54.5018632 61.8984375 62.2421875 C65.37881351 70.95546928 68.72007307 79.69104585 71.29296875 88.71875 C72.31685824 92.02234925 73.65069939 95.1797258 74.96875 98.375 C76.07045575 101.17934191 77.01169535 104.00799206 77.9375 106.875 C79.23240075 110.84000616 80.66181984 114.66999047 82.3125 118.5 C84.95586028 124.69486888 87.14722736 131.01521944 89.34521484 137.37744141 C91.14218385 142.57051698 92.98974275 147.7366182 94.9375 152.875 C97.44510159 159.51043318 99.92567514 166.15530523 102.375 172.8125 C102.73327881 173.77462402 103.09155762 174.73674805 103.46069336 175.72802734 C103.79077393 176.62859863 104.12085449 177.52916992 104.4609375 178.45703125 C104.75790527 179.26116455 105.05487305 180.06529785 105.36083984 180.89379883 C106 183 106 183 106 186 C92.47 186 78.94 186 65 186 C60.51515152 175.90909091 60.51515152 175.90909091 58.9375 170.5 C57.60975231 166.03251953 56.22743872 161.60208663 54.7109375 157.1953125 C53.72642311 154.15521863 52.87788078 151.07258274 52 148 C29.56 148 7.12 148 -16 148 C-16.99 151.63 -17.98 155.26 -19 159 C-19.75828618 161.28219679 -20.54555717 163.55519082 -21.375 165.8125 C-21.75398438 166.85019531 -22.13296875 167.88789063 -22.5234375 168.95703125 C-23.01070312 170.29121094 -23.49796875 171.62539063 -24 173 C-25.65 177.62 -27.3 182.24 -29 187 C-41.87 187 -54.74 187 -68 187 C-67.10669358 182.53346792 -65.84754898 178.45076954 -64.3125 174.1875 C-64.0455835 173.43831299 -63.77866699 172.68912598 -63.50366211 171.91723633 C-61.504319 166.33233806 -59.42443855 160.77969707 -57.3215332 155.2331543 C-55.29258481 149.85214438 -53.38539777 144.43277317 -51.5 139 C-48.69341427 130.91896868 -45.75888561 122.89688694 -42.72070312 114.90039062 C-41.53369194 111.77041263 -40.36113226 108.63501225 -39.1875 105.5 C-37.42177535 100.78351646 -35.64896494 96.06982112 -33.8671875 91.359375 C-29.93981287 80.95813958 -26.09911467 70.53907687 -22.45776367 60.03417969 C-19.03750995 50.1856055 -15.48454652 40.39726551 -11.375 30.8125 C-9.25826992 25.83076901 -7.6442737 20.80451745 -6.1875 15.59375 C-4.43296165 10.28396289 -2.15083044 5.16199306 0 0 Z " fill="#FDFA26" transform="translate(194,193)"/>
<path d="M0 0 C11.55 0 23.1 0 35 0 C38.46521265 7.50796074 41.90429041 14.96127486 45.0859375 22.58203125 C45.43258453 23.40708664 45.77923157 24.23214203 46.13638306 25.0821991 C47.21806921 27.65807156 48.29660183 30.23524955 49.375 32.8125 C50.11827872 34.58407286 50.86176689 36.35555786 51.60546875 38.12695312 C53.40605744 42.41696161 55.20382413 46.70814216 57 51 C62.23060473 41.10105723 66.41914137 30.75075434 70.75 20.4375 C71.91706896 17.66108667 73.08511281 14.88510277 74.25616455 12.11036682 C74.98085706 10.39306609 75.70322113 8.67478055 76.42303467 6.95542908 C78.8875754 1.1124246 78.8875754 1.1124246 80 0 C91.55 0 103.1 0 115 0 C115 33.99 115 67.98 115 103 C112.40446166 104.29776917 110.49294473 104.12950035 107.58984375 104.1328125 C105.98206055 104.13474609 105.98206055 104.13474609 104.34179688 104.13671875 C103.21837891 104.13285156 102.09496094 104.12898438 100.9375 104.125 C99.24657227 104.13080078 99.24657227 104.13080078 97.52148438 104.13671875 C96.45091797 104.13542969 95.38035156 104.13414062 94.27734375 104.1328125 C93.28984131 104.13168457 92.30233887 104.13055664 91.28491211 104.12939453 C89 104 89 104 88 103 C87.87619162 100.94521547 87.82201797 98.8862104 87.79467773 96.82788086 C87.78477814 96.18399918 87.77487854 95.54011749 87.76467896 94.87672424 C87.73298472 92.73946869 87.70827551 90.60219087 87.68359375 88.46484375 C87.66303104 86.98653064 87.64203476 85.50822351 87.62062073 84.02992249 C87.56532941 80.13207829 87.51595143 76.23418042 87.46777344 72.33624268 C87.40879577 67.66309464 87.34252912 62.99004507 87.27747345 58.31697845 C87.17937513 51.21137891 87.09058007 44.10571729 87 37 C80.4 52.51 73.8 68.02 67 84 C60.73 84 54.46 84 48 84 C45.31082954 77.78934201 42.62328546 71.57798382 39.93725586 65.3659668 C39.02299109 63.25216587 38.10827971 61.13855805 37.19311523 59.02514648 C35.87887396 55.98992585 34.56623267 52.9540177 33.25390625 49.91796875 C32.63824547 48.4975251 32.63824547 48.4975251 32.01014709 47.04838562 C31.62982834 46.16769913 31.24950958 45.28701263 30.85766602 44.37963867 C30.52235367 43.60464523 30.18704132 42.82965179 29.84156799 42.03117371 C29.1579857 40.38130776 28.56474263 38.69422789 28 37 C27.98969254 37.82463242 27.97938507 38.64926483 27.96876526 39.49888611 C27.8709612 47.25405684 27.76847166 55.00914453 27.66066074 62.76418209 C27.60539527 66.75153216 27.55196963 70.73888952 27.50268555 74.72631836 C27.45509524 78.57131601 27.40275464 82.41622182 27.34705925 86.26111031 C27.32661143 87.73116342 27.30790244 89.20124174 27.29092598 90.67133904 C27.26693536 92.72361276 27.2368741 94.77571147 27.20532227 96.82788086 C27.18977798 97.99814316 27.1742337 99.16840546 27.15821838 100.37413025 C27 103 27 103 26 104 C24.15840977 104.09959621 22.31303033 104.13080411 20.46875 104.1328125 C19.34855469 104.13410156 18.22835938 104.13539063 17.07421875 104.13671875 C15.89472656 104.13285156 14.71523437 104.12898438 13.5 104.125 C11.73076172 104.13080078 11.73076172 104.13080078 9.92578125 104.13671875 C8.80558594 104.13542969 7.68539063 104.13414062 6.53125 104.1328125 C5.49548828 104.13168457 4.45972656 104.13055664 3.39257812 104.12939453 C1 104 1 104 0 103 C-0.09527037 101.65927183 -0.1218877 100.31357497 -0.12025452 98.96946716 C-0.12162918 98.10143463 -0.12300385 97.2334021 -0.12442017 96.33906555 C-0.12082489 95.37953476 -0.11722961 94.42000397 -0.11352539 93.43139648 C-0.11367142 92.42663269 -0.11381744 91.4218689 -0.1139679 90.38665771 C-0.1132683 87.04811483 -0.10547374 83.70962695 -0.09765625 80.37109375 C-0.09579224 78.06323782 -0.09436826 75.75538149 -0.09336853 73.44752502 C-0.08954204 67.35982174 -0.07971065 61.27214214 -0.06866455 55.18444824 C-0.05845323 48.97778646 -0.05387151 42.77112087 -0.04882812 36.56445312 C-0.0380885 24.37628998 -0.02049064 12.18815066 0 0 Z " fill="#000000" transform="translate(1145,279)"/>
<path d="M0 0 C10.23 0 20.46 0 31 0 C32.11375 2.10632813 33.2275 4.21265625 34.375 6.3828125 C44.54434861 25.60953199 54.75481302 44.81355893 65 64 C65.33 42.88 65.66 21.76 66 0 C74.91 0 83.82 0 93 0 C93.02254861 13.41226093 93.04091369 26.82450938 93.05181217 40.23678493 C93.0570416 46.46393472 93.06414033 52.69107092 93.07543945 58.91821289 C93.08626621 64.92226865 93.09227638 70.92631129 93.09487724 76.93037605 C93.09673188 79.2266161 93.10035321 81.52285539 93.10573006 83.81908989 C93.11293768 87.02320814 93.11399106 90.2272715 93.11352539 93.43139648 C93.11712067 94.39092728 93.12071594 95.35045807 93.12442017 96.33906555 C93.1230455 97.20709808 93.12167084 98.07513062 93.12025452 98.96946716 C93.12117631 99.72810279 93.1220981 100.48673841 93.12304783 101.268363 C93 103 93 103 92 104 C87.90305892 104.24198864 83.80271568 104.2285101 79.69921875 104.24023438 C77.64021227 104.24992838 75.58220893 104.28093283 73.5234375 104.3125 C72.22921875 104.31765625 70.935 104.3228125 69.6015625 104.328125 C68.40869629 104.3374707 67.21583008 104.34681641 65.98681641 104.35644531 C63 104 63 104 61.25708008 102.79125977 C59.72436963 100.60724412 58.49353948 98.39255856 57.28515625 96.01171875 C56.76969238 95.00592773 56.25422852 94.00013672 55.72314453 92.96386719 C55.17513184 91.88266602 54.62711914 90.80146484 54.0625 89.6875 C48.80590437 79.44121628 43.39850399 69.29466765 37.8515625 59.203125 C34.53571584 53.15284042 31.2709721 47.07466247 28 41 C27.67 61.46 27.34 81.92 27 103 C24.40446166 104.29776917 22.49294473 104.12950035 19.58984375 104.1328125 C17.98206055 104.13474609 17.98206055 104.13474609 16.34179688 104.13671875 C15.21837891 104.13285156 14.09496094 104.12898438 12.9375 104.125 C11.24657227 104.13080078 11.24657227 104.13080078 9.52148438 104.13671875 C8.45091797 104.13542969 7.38035156 104.13414062 6.27734375 104.1328125 C5.28984131 104.13168457 4.30233887 104.13055664 3.28491211 104.12939453 C1 104 1 104 0 103 C-0.09527037 101.65927183 -0.1218877 100.31357497 -0.12025452 98.96946716 C-0.12162918 98.10143463 -0.12300385 97.2334021 -0.12442017 96.33906555 C-0.12082489 95.37953476 -0.11722961 94.42000397 -0.11352539 93.43139648 C-0.11367142 92.42663269 -0.11381744 91.4218689 -0.1139679 90.38665771 C-0.1132683 87.04811483 -0.10547374 83.70962695 -0.09765625 80.37109375 C-0.09579224 78.06323782 -0.09436826 75.75538149 -0.09336853 73.44752502 C-0.08954204 67.35982174 -0.07971065 61.27214214 -0.06866455 55.18444824 C-0.05845323 48.97778646 -0.05387151 42.77112087 -0.04882812 36.56445312 C-0.0380885 24.37628998 -0.02049064 12.18815066 0 0 Z " fill="#000000" transform="translate(921,279)"/>
<path d="M0 0 C12.87 0 25.74 0 39 0 C39 61.38 39 122.76 39 186 C26.13 186 13.26 186 0 186 C0 124.62 0 63.24 0 0 Z " fill="#FDF827" transform="translate(307,193)"/>
<path d="M0 0 C10.89 0 21.78 0 33 0 C41.44245698 22.65714566 49.86860899 45.32018378 58.25 68 C58.61116913 68.97704895 58.97233826 69.9540979 59.3444519 70.96075439 C61.01066655 75.46882052 62.67499663 79.97755034 64.33398438 84.48828125 C65.33199146 87.19977325 66.3433671 89.90421635 67.36914062 92.60546875 C67.73716797 93.58128906 68.10519531 94.55710937 68.484375 95.5625 C68.93635254 96.74005859 68.93635254 96.74005859 69.39746094 97.94140625 C70 100 70 100 70 104 C65.72929442 104.08692074 61.45881542 104.14036515 57.1875 104.1875 C55.36508789 104.22520508 55.36508789 104.22520508 53.50585938 104.26367188 C52.34248047 104.27333984 51.17910156 104.28300781 49.98046875 104.29296875 C48.90692139 104.3086792 47.83337402 104.32438965 46.72729492 104.34057617 C44 104 44 104 41 101 C39.35 96.05 37.7 91.1 36 86 C16.2 85.505 16.2 85.505 -4 85 C-4.66 87.97 -5.32 90.94 -6 94 C-6.465714 95.67657038 -6.95683733 97.34689622 -7.5 99 C-7.7371875 99.7425 -7.974375 100.485 -8.21875 101.25 C-9 103 -9 103 -11 104 C-12.9593604 104.08510205 -14.92162794 104.10717656 -16.8828125 104.09765625 C-18.04941406 104.09443359 -19.21601562 104.09121094 -20.41796875 104.08789062 C-21.64128906 104.07951172 -22.86460938 104.07113281 -24.125 104.0625 C-25.35605469 104.05798828 -26.58710937 104.05347656 -27.85546875 104.04882812 C-30.90369392 104.0370133 -33.95182314 104.02054028 -37 104 C-38.38677958 99.83966126 -36.81534144 97.11307678 -35.30078125 93.19921875 C-34.99827957 92.39491425 -34.69577789 91.59060974 -34.3841095 90.76193237 C-33.3686436 88.0671973 -32.34045756 85.37749203 -31.3125 82.6875 C-30.59840945 80.79913863 -29.88537743 78.91037667 -29.17333984 77.02124023 C-28.02980125 73.9872941 -26.88563486 70.9536026 -25.73828125 67.9210968 C-22.63722406 59.7193231 -19.58521218 51.50007295 -16.55078125 43.2734375 C-16.09840591 42.0475441 -15.64603058 40.8216507 -15.1799469 39.55860901 C-13.38127188 34.68301615 -11.58334686 29.80714906 -9.7875061 24.93051147 C-8.52971875 21.51669307 -7.26905562 18.10394914 -6.0078125 14.69140625 C-5.63139114 13.66723602 -5.25496979 12.6430658 -4.86714172 11.58786011 C-4.51798203 10.64435699 -4.16882233 9.70085388 -3.80908203 8.72875977 C-3.50648468 7.90803482 -3.20388733 7.08730988 -2.89212036 6.24171448 C-2.04423894 4.11116333 -1.02549023 2.05098047 0 0 Z M16 28 C14.61003474 32.00103224 13.2225971 36.00292964 11.83740234 40.00561523 C11.36672665 41.36457437 10.89538475 42.72330297 10.42333984 44.08178711 C9.74136993 46.04479354 9.06187323 48.00864183 8.3828125 49.97265625 C7.97434082 51.15093994 7.56586914 52.32922363 7.14501953 53.54321289 C6.0005205 56.99842863 4.99993939 60.50021214 4 64 C12.25 64 20.5 64 29 64 C25.04 52.12 21.08 40.24 17 28 C16.67 28 16.34 28 16 28 Z " fill="#000000" transform="translate(1063,279)"/>
<path d="M0 0 C24.09 0 48.18 0 73 0 C73 7.26 73 14.52 73 22 C58.48 22.33 43.96 22.66 29 23 C29 27.95 29 32.9 29 38 C49.295 38.495 49.295 38.495 70 39 C70 46.26 70 53.52 70 61 C56.47 61 42.94 61 29 61 C29 67.6 29 74.2 29 81 C43.85 81.33 58.7 81.66 74 82 C74 88.93 74 95.86 74 103 C72.10877886 104.89122114 68.80408428 104.12782618 66.29296875 104.12939453 C65.59217194 104.13114685 64.89137512 104.13289917 64.16934204 104.13470459 C61.84203651 104.13912266 59.51480636 104.13618529 57.1875 104.1328125 C55.57706691 104.13348555 53.96663391 104.13445559 52.35620117 104.13571167 C48.97671545 104.13718858 45.5972561 104.13503431 42.21777344 104.13037109 C37.87623495 104.1246738 33.53475827 104.12795285 29.19322205 104.13394356 C25.86649099 104.13754936 22.5397747 104.1364105 19.21304321 104.13381577 C17.61178582 104.13314655 16.0105271 104.13397474 14.40927124 104.13629532 C12.17515489 104.13882216 9.94114 104.13498085 7.70703125 104.12939453 C5.79627808 104.12820114 5.79627808 104.12820114 3.84692383 104.12698364 C1 104 1 104 0 103 C-0.09527037 101.65927183 -0.1218877 100.31357497 -0.12025452 98.96946716 C-0.12162918 98.10143463 -0.12300385 97.2334021 -0.12442017 96.33906555 C-0.12082489 95.37953476 -0.11722961 94.42000397 -0.11352539 93.43139648 C-0.11367142 92.42663269 -0.11381744 91.4218689 -0.1139679 90.38665771 C-0.1132683 87.04811483 -0.10547374 83.70962695 -0.09765625 80.37109375 C-0.09579224 78.06323782 -0.09436826 75.75538149 -0.09336853 73.44752502 C-0.08954204 67.35982174 -0.07971065 61.27214214 -0.06866455 55.18444824 C-0.05665932 47.88740783 -0.05204881 40.59035952 -0.04621124 33.29331207 C-0.03649896 22.19552488 -0.01734331 11.09778972 0 0 Z " fill="#000000" transform="translate(682,279)"/>
<path d="M0 0 C9.24 0 18.48 0 28 0 C33.83611797 14.70764314 39.14982888 29.5658249 44.375 44.5 C45.60054405 47.99667398 46.82695512 51.49303895 48.05484009 54.9888916 C48.81201358 57.1451861 49.56774483 59.30198771 50.3218689 61.45935059 C50.65957306 62.42215942 50.99727722 63.38496826 51.34521484 64.37695312 C51.64164886 65.22422974 51.93808289 66.07150635 52.24349976 66.94445801 C52.96545866 69.02322911 52.96545866 69.02322911 54 71 C55.54438555 66.81349918 57.08567658 62.62586441 58.625 58.4375 C58.86321472 57.78938354 59.10142944 57.14126709 59.34686279 56.47351074 C64.47205478 42.51841428 69.49176693 28.52589166 74.49072266 14.52514648 C74.93013184 13.29661201 74.93013184 13.29661201 75.37841797 12.04325867 C75.93109219 10.49800009 76.48273852 8.95237337 77.03320312 7.40632629 C78.88728963 2.22542074 78.88728963 2.22542074 80 0 C89.24 0 98.48 0 108 0 C105.75019994 10.12410027 105.75019994 10.12410027 104.39038086 13.69799805 C103.93144691 14.91818634 103.93144691 14.91818634 103.46324158 16.1630249 C103.13377029 17.02059387 102.80429901 17.87816284 102.46484375 18.76171875 C102.11390152 19.69075012 101.76295929 20.61978149 101.40138245 21.57696533 C100.25230131 24.6159443 99.09499668 27.65171756 97.9375 30.6875 C96.30848065 34.98334814 94.68341445 39.28068732 93.05859375 43.578125 C92.64269989 44.6764415 92.22680603 45.774758 91.79830933 46.90635681 C88.84988124 54.70668293 85.95833392 62.52647806 83.09765625 70.359375 C82.70787094 71.42456863 82.31808563 72.48976227 81.91648865 73.5872345 C80.40298488 77.72424827 78.88970879 81.86127725 77.38986206 86.00326538 C76.35982066 88.84691674 75.32136238 91.68736378 74.28125 94.52734375 C73.97683487 95.37605042 73.67241974 96.22475708 73.35877991 97.09918213 C71.22728866 102.88635567 71.22728866 102.88635567 69 104 C66.77253661 104.09772811 64.5421053 104.13077394 62.3125 104.1328125 C61.32503784 104.13424759 61.32503784 104.13424759 60.31762695 104.13571167 C58.92561752 104.13639225 57.5336049 104.13454646 56.14160156 104.13037109 C54.00839117 104.12502104 51.87539133 104.13032012 49.7421875 104.13671875 C48.39062453 104.13605795 47.0390617 104.13477674 45.6875 104.1328125 C43.83705078 104.13112061 43.83705078 104.13112061 41.94921875 104.12939453 C39 104 39 104 37 103 C36.02424074 100.74457531 35.16232075 98.51872107 34.33984375 96.20703125 C34.07804825 95.48977371 33.81625275 94.77251617 33.54652405 94.03352356 C32.67034838 91.62882528 31.80412308 89.22065566 30.9375 86.8125 C30.32307877 85.12193732 29.70782804 83.43167591 29.09179688 81.74169922 C28.10913729 79.04527755 27.12716651 76.34861949 26.14779663 73.65100098 C22.50797708 63.62573608 18.80959923 53.62228387 15.10794067 43.61972046 C14.02524675 40.69324099 12.94393208 37.76625565 11.86303711 34.83911133 C11.52082626 33.91292496 11.17861542 32.98673859 10.82603455 32.03248596 C10.15896087 30.22685875 9.49233304 28.42106674 8.82618713 26.61509705 C7.29446007 22.46915449 5.74941212 18.32940806 4.16796875 14.20214844 C3.74390747 13.0907399 3.74390747 13.0907399 3.3112793 11.95687866 C2.78712826 10.58658176 2.25892448 9.21782511 1.72583008 7.85098267 C0.66061904 5.06247921 0 3.01710715 0 0 Z " fill="#000000" transform="translate(511,279)"/>
<path d="M0 0 C31.68 0 63.36 0 96 0 C96 7.26 96 14.52 96 22 C84.78 22 73.56 22 62 22 C62.00523682 24.44849365 62.01047363 26.8969873 62.01586914 29.41967773 C62.03240494 37.49026528 62.04347118 45.56085355 62.05181217 53.63145351 C62.057041 58.52685374 62.06413864 63.42223668 62.07543945 68.31762695 C62.08626834 73.03787978 62.09227684 77.75811592 62.09487724 82.4783802 C62.09673149 84.28338954 62.10035209 86.08839792 62.10573006 87.89340019 C62.11294052 90.41259644 62.11399094 92.9317229 62.11352539 95.45092773 C62.11712067 96.20474228 62.12071594 96.95855682 62.12442017 97.73521423 C62.11405216 102.88594784 62.11405216 102.88594784 61 104 C59.08541718 104.09971786 57.16717683 104.13080589 55.25 104.1328125 C54.0846875 104.13410156 52.919375 104.13539063 51.71875 104.13671875 C50.4915625 104.13285156 49.264375 104.12898438 48 104.125 C46.15921875 104.13080078 46.15921875 104.13080078 44.28125 104.13671875 C43.1159375 104.13542969 41.950625 104.13414062 40.75 104.1328125 C39.67234375 104.13168457 38.5946875 104.13055664 37.484375 104.12939453 C35 104 35 104 34 103 C33.90495749 100.47458998 33.87442842 97.97662874 33.88647461 95.45092773 C33.88632858 94.66074249 33.88618256 93.87055725 33.8860321 93.056427 C33.88673143 90.43212178 33.89452473 87.80788664 33.90234375 85.18359375 C33.90420786 83.36898335 33.9056318 81.55437244 33.90663147 79.73976135 C33.91045721 74.9540977 33.92028796 70.1684642 33.93133545 65.3828125 C33.94154837 60.50325936 33.94612883 55.62370136 33.95117188 50.74414062 C33.96191019 41.16274501 33.97950743 31.58137972 34 22 C22.78 22 11.56 22 0 22 C0 14.74 0 7.48 0 0 Z " fill="#000000" transform="translate(765,279)"/>
<path d="M0 0 C9.24 0 18.48 0 28 0 C28 33.99 28 67.98 28 103 C25.35171821 104.3241409 23.33319888 104.12957042 20.37109375 104.1328125 C18.69563477 104.13474609 18.69563477 104.13474609 16.98632812 104.13671875 C15.81521484 104.13285156 14.64410156 104.12898438 13.4375 104.125 C12.26251953 104.12886719 11.08753906 104.13273437 9.87695312 104.13671875 C8.76126953 104.13542969 7.64558594 104.13414062 6.49609375 104.1328125 C5.46669678 104.13168457 4.4372998 104.13055664 3.37670898 104.12939453 C1 104 1 104 0 103 C-0.09527037 101.65927183 -0.1218877 100.31357497 -0.12025452 98.96946716 C-0.12162918 98.10143463 -0.12300385 97.2334021 -0.12442017 96.33906555 C-0.12082489 95.37953476 -0.11722961 94.42000397 -0.11352539 93.43139648 C-0.11367142 92.42663269 -0.11381744 91.4218689 -0.1139679 90.38665771 C-0.1132683 87.04811483 -0.10547374 83.70962695 -0.09765625 80.37109375 C-0.09579224 78.06323782 -0.09436826 75.75538149 -0.09336853 73.44752502 C-0.08954204 67.35982174 -0.07971065 61.27214214 -0.06866455 55.18444824 C-0.05845323 48.97778646 -0.05387151 42.77112087 -0.04882812 36.56445312 C-0.0380885 24.37628998 -0.02049064 12.18815066 0 0 Z " fill="#000000" transform="translate(631,279)"/>
<path d="M0 0 C0.66 0 1.32 0 2 0 C2.38671875 1.18335938 2.7734375 2.36671875 3.171875 3.5859375 C3.69775084 5.1823463 4.22380198 6.77869736 4.75 8.375 C5.00265625 9.14972656 5.2553125 9.92445313 5.515625 10.72265625 C6.86271796 14.79761245 8.29565309 18.80571469 9.9140625 22.78125 C12.36799718 28.82089097 14.49807076 34.96399498 16.625 41.125 C17.21667969 42.81689453 17.21667969 42.81689453 17.8203125 44.54296875 C18.201875 45.64511719 18.5834375 46.74726563 18.9765625 47.8828125 C19.31768066 48.86652832 19.65879883 49.85024414 20.01025391 50.86376953 C21.16697727 54.5291046 22.06780808 58.27123233 23 62 C8.81 62 -5.38 62 -20 62 C-18.88159772 53.05278174 -18.88159772 53.05278174 -17.25 49.375 C-11.63951573 36.07013729 -7.36972215 22.21764252 -2.83447266 8.51953125 C-1.89348683 5.67840377 -0.94789664 2.83882892 0 0 Z " fill="#E82317" transform="translate(211,246)"/>
<path d="M0 0 C0.93714844 0.02771484 1.87429688 0.05542969 2.83984375 0.08398438 C3.77699219 0.06916016 4.71414063 0.05433594 5.6796875 0.0390625 C10.0930514 0.09227327 12.55585654 0.17499621 16.1328125 2.89648438 C16.86113281 3.84523437 17.58945312 4.79398438 18.33984375 5.77148438 C19.29936294 6.8634259 20.26449117 7.9504572 21.234375 9.03320312 C22.20938847 10.1731182 23.18202493 11.31507047 24.15234375 12.45898438 C24.90547852 13.33006836 24.90547852 13.33006836 25.67382812 14.21875 C29.33984375 18.53317655 29.33984375 18.53317655 29.33984375 20.77148438 C23.02751274 21.517906 17.57511991 22.09714526 11.9609375 18.76757812 C9.28579877 16.53887715 6.76627914 14.26724649 4.33984375 11.77148438 C0.54180962 13.05477918 -1.41595589 14.40838256 -4.03515625 17.39648438 C-7.94502266 21.04217063 -11.50244287 21.33348507 -16.66015625 21.20898438 C-19.00343785 21.11675529 -21.32182022 20.963301 -23.66015625 20.77148438 C-22.12402072 17.20633561 -19.97631105 14.73278081 -17.34765625 11.89648438 C-14.81270638 9.15064733 -12.57034384 6.63372823 -10.5234375 3.49414062 C-6.90776603 0.05604647 -4.84732606 0.0171891 0 0 Z " fill="#000000" transform="translate(714.66015625,250.228515625)"/>
<path d="M0 0 C1.084021 0.00523682 2.16804199 0.01047363 3.28491211 0.01586914 C5.03964844 0.02070313 5.03964844 0.02070313 6.82983398 0.02563477 C8.67738281 0.03820312 8.67738281 0.03820312 10.56225586 0.05102539 C12.41560547 0.05779297 12.41560547 0.05779297 14.30639648 0.06469727 C17.37086999 0.07652921 20.43531879 0.09446531 23.49975586 0.11352539 C23.49975586 7.37352539 23.49975586 14.63352539 23.49975586 22.11352539 C19.18721502 22.14034838 14.87483879 22.16027783 10.56225586 22.17602539 C9.33055664 22.1844043 8.09885742 22.1927832 6.82983398 22.20141602 C5.66000977 22.20463867 4.49018555 22.20786133 3.28491211 22.21118164 C1.65888062 22.21903687 1.65888062 22.21903687 0 22.22705078 C-2.50024414 22.11352539 -2.50024414 22.11352539 -3.50024414 21.11352539 C-3.59905211 19.63699875 -3.6310366 18.15585303 -3.63305664 16.67602539 C-3.6343457 15.78141602 -3.63563477 14.88680664 -3.63696289 13.96508789 C-3.63116211 12.55356445 -3.63116211 12.55356445 -3.62524414 11.11352539 C-3.62911133 10.17250977 -3.63297852 9.23149414 -3.63696289 8.26196289 C-3.63567383 7.36735352 -3.63438477 6.47274414 -3.63305664 5.55102539 C-3.63136475 4.3115918 -3.63136475 4.3115918 -3.62963867 3.04711914 C-3.43107541 0.07990965 -2.98571851 0.1355687 0 0 Z " fill="#000000" transform="translate(707.500244140625,389.886474609375)"/>
<path d="M0 0 C2.79834583 8.05238291 -2.78976697 19.5291268 -6 27 C-6.51304687 27.85464844 -7.02609375 28.70929688 -7.5546875 29.58984375 C-9.36364617 32.60640455 -10.1203841 35.60719583 -11 39 C-11.33 39.99 -11.66 40.98 -12 42 C-0.12 42.33 11.76 42.66 24 43 C24 43.33 24 43.66 24 44 C11.13 44 -1.74 44 -15 44 C-14.10669635 39.53348173 -12.84756995 35.45077253 -11.3125 31.1875 C-10.91756348 30.07894653 -10.91756348 30.07894653 -10.51464844 28.94799805 C-8.40682433 23.06021771 -6.22846153 17.19933707 -4.00512695 11.35424805 C-2.57881771 7.59648122 -1.24458195 3.8218059 0 0 Z " fill="#FDCF35" transform="translate(141,336)"/>
<path d="M0 0 C1.68216214 0.00031737 3.36434441 0.01165683 5.04638672 0.03173828 C6.37390457 0.03598312 6.37390457 0.03598312 7.72824097 0.04031372 C10.56098834 0.05152838 13.39342206 0.07663508 16.22607422 0.10205078 C18.14403841 0.11207893 20.06200755 0.12120507 21.97998047 0.12939453 C26.68713298 0.15147189 31.39405038 0.18601033 36.10107422 0.22705078 C36.49939453 1.38333984 36.49939453 1.38333984 36.90576172 2.56298828 C37.25896484 3.56587891 37.61216797 4.56876953 37.97607422 5.60205078 C38.32412109 6.59978516 38.67216797 7.59751953 39.03076172 8.62548828 C39.94889924 11.33147196 39.94889924 11.33147196 42.10107422 13.22705078 C42.37099328 15.91544463 42.18844779 18.51847014 42.10107422 21.22705078 C40.02889937 18.1187885 38.81682067 15.20828719 37.47607422 11.72705078 C37.03005859 10.58236328 36.58404297 9.43767578 36.12451172 8.25830078 C35.10107422 5.22705078 35.10107422 5.22705078 35.10107422 2.22705078 C22.23107422 2.22705078 9.36107422 2.22705078 -3.89892578 2.22705078 C-4.22892578 3.54705078 -4.55892578 4.86705078 -4.89892578 6.22705078 C-5.52392578 4.35205078 -5.52392578 4.35205078 -5.89892578 2.22705078 C-3.89892578 0.22705078 -3.89892578 0.22705078 0 0 Z " fill="#D84107" transform="translate(197.89892578125,190.77294921875)"/>
<path d="M0 0 C12.87 0 25.74 0 39 0 C39.495 2.475 39.495 2.475 40 5 C39.01 4.67 38.02 4.34 37 4 C37 3.34 37 2.68 37 2 C25.12 2 13.24 2 1 2 C0.34 5.96 -0.32 9.92 -1 14 C-2.32 14.33 -3.64 14.66 -5 15 C-3.72172502 9.88690007 -1.80114409 4.95314625 0 0 Z " fill="#FFE039" transform="translate(194,193)"/>
<path d="M0 0 C0.99 0.33 1.98 0.66 3 1 C1.2031746 7.55683655 -1.03920291 13.9100464 -3.45117188 20.26074219 C-5.72161995 26.24069363 -7.93537637 32.23998702 -10.125 38.25 C-10.46901855 39.19101562 -10.81303711 40.13203125 -11.16748047 41.1015625 C-13.31477811 47.00793083 -15.32785111 52.9262096 -17.11328125 58.953125 C-18 61 -18 61 -21 63 C-20.00185401 57.44452956 -18.49349861 52.6464839 -16.0859375 47.55078125 C-13.9463331 42.52501983 -12.52238629 37.23927621 -11 32 C-10.34 32 -9.68 32 -9 32 C-8.89558594 31.00742187 -8.79117188 30.01484375 -8.68359375 28.9921875 C-8.07972589 24.77041887 -6.6506989 21.06274599 -5.0625 17.125 C-2.84846845 11.45686949 -1.07349921 6.01159557 0 0 Z " fill="#DA430A" transform="translate(156,287)"/>
<path d="M0 0 C1.08174162 3.36541838 0.92538169 4.29847322 0 8 C12.54 8 25.08 8 38 8 C37.505 4.04 37.505 4.04 37 0 C40.14002815 3.54959704 40.13398634 4.80391802 41 10 C26.81 10 12.62 10 -2 10 C-1 2 -1 2 0 0 Z " fill="#E05510" transform="translate(193,298)"/>
<path d="M0 0 C1.22133636 0.00444122 2.44267273 0.00888245 3.70101929 0.01345825 C4.37430771 0.0131662 5.04759613 0.01287415 5.74128723 0.01257324 C7.97067067 0.01396856 10.19972145 0.02953887 12.42904663 0.04519653 C13.97318336 0.04892595 15.51732246 0.05177326 17.0614624 0.05377197 C21.12873856 0.06141404 25.19587224 0.08106736 29.26309204 0.10317993 C33.41214063 0.12362607 37.5612122 0.13277105 41.71029663 0.14285278 C49.85359124 0.16431279 57.99676997 0.19845555 66.13998413 0.24050903 C66.13998413 0.57050903 66.13998413 0.90050903 66.13998413 1.24050903 C43.69998413 1.24050903 21.25998413 1.24050903 -1.86001587 1.24050903 C-2.85001587 4.87050903 -3.84001587 8.50050903 -4.86001587 12.24050903 C-5.83960451 15.25183707 -6.81940571 18.25152242 -7.86001587 21.24050903 C-8.19001587 21.24050903 -8.52001587 21.24050903 -8.86001587 21.24050903 C-8.86001587 18.60050903 -8.86001587 15.96050903 -8.86001587 13.24050903 C-8.20001587 13.24050903 -7.54001587 13.24050903 -6.86001587 13.24050903 C-6.86001587 11.26050903 -6.86001587 9.28050903 -6.86001587 7.24050903 C-6.20001587 7.24050903 -5.54001587 7.24050903 -4.86001587 7.24050903 C-4.92189087 6.06488403 -4.92189087 6.06488403 -4.98501587 4.86550903 C-4.80180877 1.01816001 -3.77852178 0.3177495 0 0 Z " fill="#FEA632" transform="translate(179.86001586914063,339.7594909667969)"/>
<path d="M0 0 C0.33 0 0.66 0 1 0 C1.20707578 3.52028831 1.22914846 6.34778094 0.0534668 9.6940918 C-2.27066836 12.30394277 -2.69797566 12.37433196 -6.01245117 12.65942383 C-7.68886094 12.70055515 -9.36607202 12.71470419 -11.04296875 12.70703125 C-12.36836418 12.72971321 -12.36836418 12.72971321 -13.72053528 12.75285339 C-16.54311409 12.79584633 -19.36462592 12.80457934 -22.1875 12.8125 C-24.10094006 12.83563536 -26.01435457 12.86099869 -27.92773438 12.88867188 C-32.61858438 12.95163857 -37.30876449 12.98388326 -42 13 C-42 12.01 -42 11.02 -42 10 C-29.13 10 -16.26 10 -3 10 C-2.67 8.02 -2.34 6.04 -2 4 C-0.9375 1.625 -0.9375 1.625 0 0 Z " fill="#DC3209" transform="translate(168,370)"/>
<path d="M0 0 C22.44 0 44.88 0 68 0 C70.5773452 6.01380547 71.4660563 8.91304181 72 15 C69.30040268 12.30040268 68.32802996 9.56153489 67 6 C67 4.35 67 2.7 67 1 C45.55 1.33 24.1 1.66 2 2 C1.67 2.66 1.34 3.32 1 4 C0.34 4 -0.32 4 -1 4 C-0.67 2.68 -0.34 1.36 0 0 Z " fill="#D24503" transform="translate(178,341)"/>
<path d="M0 0 C2.24185655 2.24185655 2.73224017 3.68640315 3.734375 6.6640625 C4.22079468 8.08972534 4.22079468 8.08972534 4.71704102 9.54418945 C5.22835571 11.06919067 5.22835571 11.06919067 5.75 12.625 C8.45552207 20.58611217 11.22917965 28.4963349 14.36035156 36.30126953 C14.96262614 37.84694101 15.48953813 39.42162626 16 41 C15.67 41.66 15.34 42.32 15 43 C12.53758005 40.53758005 12.08935134 38.56561637 11.0625 35.25 C9.67739227 30.92990563 8.06743038 27.04088664 6 23 C4.7081499 19.0564576 4 16.16598478 4 12 C3.34 12 2.68 12 2 12 C0.86235649 7.73383684 0 4.43513689 0 0 Z " fill="#FCC635" transform="translate(283,332)"/>
<path d="M0 0 C0.99 0 1.98 0 3 0 C3.25394531 0.83402344 3.50789062 1.66804687 3.76953125 2.52734375 C6.81471697 12.48407459 9.89468395 22.13561716 14.1875 31.625 C15.07530939 34.22013513 15.15563499 36.27638769 15 39 C12.95039438 36.95039438 12.43698513 35.87360205 11.484375 33.2109375 C11.20537354 32.44128662 10.92637207 31.67163574 10.63891602 30.87866211 C10.34557373 30.05245361 10.05223145 29.22624512 9.75 28.375 C9.1294839 26.65473944 8.50837943 24.93469101 7.88671875 23.21484375 C7.57395996 22.34585449 7.26120117 21.47686523 6.93896484 20.58154297 C6.04770664 18.13116225 5.134081 15.69094286 4.20703125 13.25390625 C3.92956055 12.52445801 3.65208984 11.79500977 3.36621094 11.04345703 C2.83903818 9.66211066 2.30981072 8.28154632 1.77832031 6.90185547 C0 2.21943319 0 2.21943319 0 0 Z " fill="#D63F08" transform="translate(248,235)"/>
<path d="M0 0 C1.68551848 4.12254203 0.28358669 7.89803489 -0.8125 12 C-0.99103516 12.7115625 -1.16957031 13.423125 -1.35351562 14.15625 C-2.25512966 17.64552885 -3.21421679 20.86180356 -5 24 C-5.37125 24.7425 -5.7425 25.485 -6.125 26.25 C-6.41375 26.8275 -6.7025 27.405 -7 28 C-7.66 28 -8.32 28 -9 28 C-8.50013161 20.83521971 -5.65492366 14.60889253 -3 8 C-2.3902618 6.39794277 -1.78499577 4.79416327 -1.1875 3.1875 C-0.795625 2.135625 -0.40375 1.08375 0 0 Z " fill="#FCD236" transform="translate(161,282)"/>
<path d="M0 0 C3.80297553 2.53531702 3.83976334 4.10111547 5 8.4375 C6.11687807 12.60252447 6.83312389 15.09774157 10 18 C11.506184 22.83564337 12.25468939 26.9062121 12 32 C9.56272586 29.56272586 9.09544746 27.65222287 8.0625 24.375 C6.9264492 20.84061974 5.78448815 17.33463272 4.4375 13.875 C2.69307187 9.33181904 1.35011505 4.67273861 0 0 Z " fill="#FDDC35" transform="translate(213,247)"/>
<path d="M0 0 C1.59692326 2.3953849 2.5739791 4.21531954 3.5859375 6.84375 C3.87533203 7.59076172 4.16472656 8.33777344 4.46289062 9.10742188 C4.76388672 9.89697266 5.06488281 10.68652344 5.375 11.5 C5.68373047 12.30501953 5.99246094 13.11003906 6.31054688 13.93945312 C6.92612323 15.54872715 7.53976656 17.15874206 8.15136719 18.76953125 C8.88721658 20.70357038 9.63402932 22.63343146 10.3828125 24.5625 C10.75148438 25.531875 11.12015625 26.50125 11.5 27.5 C11.8196875 28.3353125 12.139375 29.170625 12.46875 30.03125 C13 32 13 32 12 34 C8.70802039 28.82688918 6.79026783 23.69931234 4.9453125 17.859375 C4.1835486 15.5551966 3.34616815 13.43776366 2.3125 11.25 C0.75594495 7.3956732 0.36210436 4.1279897 0 0 Z " fill="#FDCF37" transform="translate(270,297)"/>
<path d="M0 0 C0.99 0.33 1.98 0.66 3 1 C1.29239225 7.23127037 -0.7688989 13.31501482 -3 19.375 C-3.2489502 20.06464844 -3.49790039 20.75429688 -3.75439453 21.46484375 C-5.09779766 25.06132835 -6.48508304 28.08089996 -9 31 C-8.37345133 26.02628647 -6.90102906 21.80305412 -5.0625 17.1875 C-2.85527108 11.50019375 -1.07606339 6.025955 0 0 Z " fill="#D63B06" transform="translate(156,287)"/>
<path d="M0 0 C1.45606519 4.52092968 0.27032841 7.51648796 -1 12 C-1.66 12 -2.32 12 -3 12 C-3 13.98 -3 15.96 -3 18 C-3.66 18 -4.32 18 -5 18 C-5.33 19.32 -5.66 20.64 -6 22 C-7.48785086 17.43261444 -5.84682095 14.1527685 -4.125 9.875 C-3.70154297 8.78251953 -3.70154297 8.78251953 -3.26953125 7.66796875 C-2.25634094 5.07016801 -1.24771231 2.49542463 0 0 Z " fill="#D64408" transform="translate(202,274)"/>
<path d="M0 0 C0.99 0 1.98 0 3 0 C2.33229146 2.00312561 1.66373221 4.0059697 0.9921875 6.0078125 C0.23513847 8.29088163 -0.50779937 10.57683548 -1.2421875 12.8671875 C-1.68227978 14.22396219 -2.12238397 15.58073301 -2.5625 16.9375 C-2.77221436 17.60015869 -2.98192871 18.26281738 -3.19799805 18.94555664 C-4.15318801 21.87146227 -4.79216742 23.79216742 -7 26 C-6.85304687 25.278125 -6.70609375 24.55625 -6.5546875 23.8125 C-6.20620758 22.04555958 -5.87538212 20.27495049 -5.5703125 18.5 C-4.70590598 13.64719149 -3.67626901 10.1889428 -1 6 C-0.28598768 2.80604974 -0.28598768 2.80604974 0 0 Z " fill="#FCD733" transform="translate(199,274)"/>
<path d="M0 0 C1.12018319 3.36054957 0.90181274 4.01723271 -0.21484375 7.23046875 C-0.48876953 8.03291016 -0.76269531 8.83535156 -1.04492188 9.66210938 C-1.48674805 10.91217773 -1.48674805 10.91217773 -1.9375 12.1875 C-2.22818359 13.03248047 -2.51886719 13.87746094 -2.81835938 14.74804688 C-3.53757537 16.83495229 -4.2650343 18.91859994 -5 21 C-5.33 21 -5.66 21 -6 21 C-6 18.36 -6 15.72 -6 13 C-5.34 13 -4.68 13 -4 13 C-4 11.02 -4 9.04 -4 7 C-3.34 7 -2.68 7 -2 7 C-2.061875 5.824375 -2.061875 5.824375 -2.125 4.625 C-2 2 -2 2 0 0 Z " fill="#FEE038" transform="translate(177,340)"/>
<path d="M0 0 C2.81083807 2.81083807 3.77143886 6.21585145 5.125 9.875 C5.40214844 10.59558594 5.67929688 11.31617188 5.96484375 12.05859375 C6.22652344 12.75855469 6.48820313 13.45851562 6.7578125 14.1796875 C6.9964502 14.81632324 7.23508789 15.45295898 7.48095703 16.10888672 C8 18 8 18 8 22 C7.01 22 6.02 22 5 22 C4.89042969 21.3709375 4.78085938 20.741875 4.66796875 20.09375 C3.86922997 15.78185936 3.00020099 11.70725841 1.375 7.625 C0 4 0 4 0 0 Z " fill="#FDCC3D" transform="translate(244,226)"/>
<path d="M0 0 C0.99 0 1.98 0 3 0 C3.103125 1.051875 3.20625 2.10375 3.3125 3.1875 C3.73135292 6.89383698 3.73135292 6.89383698 5.4375 9.25 C7.86513972 13.52264591 8.28283134 18.18231406 9 23 C7 22 7 22 6.13037109 19.97460938 C5.84758301 19.10642578 5.56479492 18.23824219 5.2734375 17.34375 C4.9640625 16.40402344 4.6546875 15.46429688 4.3359375 14.49609375 C4.01882813 13.50738281 3.70171875 12.51867187 3.375 11.5 C2.88773437 10.01693359 2.88773437 10.01693359 2.390625 8.50390625 C0 1.18136161 0 1.18136161 0 0 Z " fill="#D9450C" transform="translate(266,284)"/>
<path d="M0 0 C1 2 1 2 -0.21484375 5.6953125 C-0.78133585 7.17485658 -1.35591889 8.65132181 -1.9375 10.125 C-2.22818359 10.87910156 -2.51886719 11.63320313 -2.81835938 12.41015625 C-3.53874998 14.27608602 -4.26850404 16.1383958 -5 18 C-6.20601319 13.47418943 -6.2235565 9.55389903 -5 5 C-2.4375 1.9375 -2.4375 1.9375 0 0 Z " fill="#D93F0B" transform="translate(134,354)"/>
<path d="M0 0 C-1.92556636 6.85618326 -4.2472483 13.43252132 -7 20 C-7.33 20 -7.66 20 -8 20 C-8.42480768 15.32711553 -6.81835418 12.24282643 -5 8 C-5 7.0925 -5 6.185 -5 5.25 C-5 3 -5 3 -3.625 1.1875 C-2 0 -2 0 0 0 Z " fill="#DA3907" transform="translate(173,250)"/>
<path d="M0 0 C0.83119315 2.37103175 1.1241994 3.62234719 0.328125 6.04296875 C-0.02765625 6.75066406 -0.3834375 7.45835937 -0.75 8.1875 C-2.90345353 12.68881605 -4.51506891 17.24147081 -6 22 C-6.33 22 -6.66 22 -7 22 C-7 20.02 -7 18.04 -7 16 C-6.34 16 -5.68 16 -5 16 C-4.79890625 14.92492187 -4.79890625 14.92492187 -4.59375 13.828125 C-4.01748558 11.08328656 -3.30422126 8.436099 -2.5 5.75 C-2.2421875 4.87859375 -1.984375 4.0071875 -1.71875 3.109375 C-1 1 -1 1 0 0 Z " fill="#D6460D" transform="translate(190,200)"/>
<path d="M0 0 C0.33 0 0.66 0 1 0 C1.19480519 11.49350649 1.19480519 11.49350649 -1.4375 14.8125 C-3 16 -3 16 -5 16 C-4.54548816 14.26982492 -4.08621143 12.54090123 -3.625 10.8125 C-3.36976563 9.84957031 -3.11453125 8.88664063 -2.8515625 7.89453125 C-2.05233704 5.17789793 -1.0968638 2.60862825 0 0 Z " fill="#FDD736" transform="translate(188,208)"/>
<path d="M0 0 C1.72274487 2.58411731 2.68895522 4.54902656 3.6875 7.4375 C3.95949219 8.19933594 4.23148438 8.96117187 4.51171875 9.74609375 C5.04729142 12.21829721 4.80445309 13.62983284 4 16 C4 15.34 4 14.68 4 14 C3.34 14 2.68 14 2 14 C0.09391902 10.78817851 -0.22266247 8.46117397 -0.125 4.75 C-0.09792969 3.41195313 -0.09792969 3.41195313 -0.0703125 2.046875 C-0.04710937 1.37140625 -0.02390625 0.6959375 0 0 Z " fill="#DC480E" transform="translate(225,282)"/>
<path d="M0 0 C0.66 0.33 1.32 0.66 2 1 C1.3819713 2.79408332 0.75533919 4.58520478 0.125 6.375 C-0.22304687 7.37273437 -0.57109375 8.37046875 -0.9296875 9.3984375 C-2 12 -2 12 -4 14 C-3.9131252 12.04082341 -3.80495488 10.08258129 -3.6875 8.125 C-3.62949219 7.03445313 -3.57148438 5.94390625 -3.51171875 4.8203125 C-3.34285156 3.88960938 -3.17398438 2.95890625 -3 2 C-2.01 1.34 -1.02 0.68 0 0 Z " fill="#DC350C" transform="translate(163,272)"/>
<path d="M0 0 C0.99 0 1.98 0 3 0 C3.28875 1.11375 3.5775 2.2275 3.875 3.375 C4.69241329 7.00291092 4.69241329 7.00291092 7 9 C7.26991906 11.68839385 7.08737357 14.29141936 7 17 C4.83034602 13.74551903 3.63856738 10.4746415 2.375 6.8125 C2.14554688 6.15830078 1.91609375 5.50410156 1.6796875 4.83007812 C1.11604856 3.22135865 0.55752016 1.61085023 0 0 Z " fill="#DC410A" transform="translate(233,195)"/>
<path d="M0 0 C3.74953579 2.30561517 4.73995724 4.2104197 5.8125 8.4375 C6.06644531 9.38496094 6.32039062 10.33242187 6.58203125 11.30859375 C6.99366994 13.95923912 6.87038442 15.49542444 6 18 C4 12 2 6 0 0 Z " fill="#D8420B" transform="translate(241,216)"/>
<path d="M0 0 C3.05906926 2.51066469 3.75191278 4.90059933 4.6875 8.6875 C5.06455078 10.17830078 5.06455078 10.17830078 5.44921875 11.69921875 C5.63097656 12.45847656 5.81273437 13.21773438 6 14 C3 13 3 13 1.875 10.9375 C0.78485116 7.27771461 0.38633537 3.7989645 0 0 Z " fill="#FCD236" transform="translate(264,282)"/>
<path d="M0 0 C1.28497537 3.85492611 0.4052209 5.40346836 -0.9375 9.1875 C-1.31777344 10.27417969 -1.69804687 11.36085938 -2.08984375 12.48046875 C-2.39019531 13.31191406 -2.69054687 14.14335937 -3 15 C-3.33 15 -3.66 15 -4 15 C-3.40546697 4.44191344 -3.40546697 4.44191344 0 0 Z " fill="#FED830" transform="translate(208,252)"/>
<path d="M0 0 C0.33 0 0.66 0 1 0 C1 3.3 1 6.6 1 10 C-0.32 10.33 -1.64 10.66 -3 11 C-2.11223998 7.30099992 -1.05418136 3.65449539 0 0 Z " fill="#FDCE35" transform="translate(192,197)"/>
<path d="M0 0 C3.64566574 2.43044383 3.9977335 3.82388959 5 8 C4.625 10.375 4.625 10.375 4 12 C1.79463821 7.9728176 0.54339792 4.56454251 0 0 Z " fill="#FCDC3E" transform="translate(288,349)"/>
<path d="M0 0 C0.33 0 0.66 0 1 0 C1.9765625 6.0546875 1.9765625 6.0546875 2 8 C1.34 8.66 0.68 9.32 0 10 C-0.99 10 -1.98 10 -3 10 C-2.01 6.7 -1.02 3.4 0 0 Z " fill="#FDDA38" transform="translate(178,236)"/>
<path d="M0 0 C0.66 0 1.32 0 2 0 C2.53154742 1.60064843 3.04988353 3.20568874 3.5625 4.8125 C3.85253906 5.70582031 4.14257812 6.59914063 4.44140625 7.51953125 C5 10 5 10 4 13 C3.32404685 11.58774074 2.65959941 10.16997095 2 8.75 C1.62875 7.96109375 1.2575 7.1721875 0.875 6.359375 C0 4 0 4 0 0 Z " fill="#D9440A" transform="translate(245,343)"/>
<path d="M0 0 C3.33773709 3.64116773 3.97864902 7.28607242 5 12 C4.01 11.34 3.02 10.68 2 10 C2 8.68 2 7.36 2 6 C1.34 6 0.68 6 0 6 C0 4.02 0 2.04 0 0 Z " fill="#FDCE37" transform="translate(257,262)"/>
<path d="M0 0 C0.33 0 0.66 0 1 0 C1.36923077 5.53846154 1.36923077 5.53846154 -0.5 7.875 C-1.2425 8.431875 -1.2425 8.431875 -2 9 C-2.33 6.69 -2.66 4.38 -3 2 C-2.34 2 -1.68 2 -1 2 C-0.67 1.34 -0.34 0.68 0 0 Z " fill="#FEF12E" transform="translate(191,298)"/>
<path d="M0 0 C2 3.75 2 3.75 2 6 C1.34 6 0.68 6 0 6 C-0.66 7.98 -1.32 9.96 -2 12 C-3.12377697 8.69564916 -2.89554742 6.9493138 -1.5625 3.75 C-1.27503906 3.04359375 -0.98757812 2.3371875 -0.69140625 1.609375 C-0.46324219 1.07828125 -0.23507813 0.5471875 0 0 Z " fill="#FCC834" transform="translate(171,254)"/>
<path d="M0 0 C0.99 0.495 0.99 0.495 2 1 C2.6328125 3.06640625 2.6328125 3.06640625 3.125 5.5625 C3.29257813 6.38878906 3.46015625 7.21507812 3.6328125 8.06640625 C3.75398437 8.70449219 3.87515625 9.34257812 4 10 C2 8.375 2 8.375 0 6 C-0.25 2.75 -0.25 2.75 0 0 Z " fill="#FAD036" transform="translate(252,248)"/>
<path d="M0 0 C0.33 0 0.66 0 1 0 C1 2.31 1 4.62 1 7 C0.34 7 -0.32 7 -1 7 C-1.33 7.99 -1.66 8.98 -2 10 C-3 8 -3 8 -2.44140625 6.0546875 C-2.15136719 5.33539063 -1.86132812 4.61609375 -1.5625 3.875 C-1.27503906 3.15054688 -0.98757812 2.42609375 -0.69140625 1.6796875 C-0.46324219 1.12539062 -0.23507813 0.57109375 0 0 Z " fill="#FDC935" transform="translate(182,225)"/>
<path d="M0 0 C0.99 0 1.98 0 3 0 C2.25 5.75 2.25 5.75 0 8 C0 5.36 0 2.72 0 0 Z " fill="#F7C22A" transform="translate(171,353)"/>
<path d="M0 0 C0.99 0.33 1.98 0.66 3 1 C2.39816251 3.02045442 1.72693904 5.02111039 1 7 C0.01 7.495 0.01 7.495 -1 8 C-0.67 5.36 -0.34 2.72 0 0 Z " fill="#D92E0B" transform="translate(156,287)"/>
<path d="M0 0 C1.5 1.25 1.5 1.25 3 3 C3 4.32 3 5.64 3 7 C2.01 7 1.02 7 0 7 C0 4.69 0 2.38 0 0 Z " fill="#FCD835" transform="translate(249,241)"/>
</svg>
